<?xml version="1.0" standalone="no"?><!DOCTYPE svg PUBLIC "-//W3C//DTD SVG 1.1//EN" "http://www.w3.org/Graphics/SVG/1.1/DTD/svg11.dtd"><svg t="1633357414354" class="icon" viewBox="0 0 1024 1024" version="1.1" xmlns="http://www.w3.org/2000/svg" p-id="4748" width="200" height="200" xmlns:xlink="http://www.w3.org/1999/xlink"><defs><style type="text/css"></style></defs><path d="M170.666667 383.786667C170.666667 195.370667 323.477333 42.666667 512 42.666667c188.458667 0 341.333333 152.832 341.333333 341.12v256.426666C853.333333 828.629333 700.522667 981.333333 512 981.333333c-188.458667 0-341.333333-152.832-341.333333-341.12V383.786667z m85.333333 0v256.426666C256 781.354667 370.666667 896 512 896c141.418667 0 256-114.517333 256-255.786667V383.786667C768 242.645333 653.333333 128 512 128c-141.418667 0-256 114.517333-256 255.786667zM469.333333 298.666667a42.666667 42.666667 0 1 1 85.333334 0v149.333333a42.666667 42.666667 0 1 1-85.333334 0v-149.333333z" fill="#c7c7c7" p-id="4749"></path></svg>